<svg width="40" height="40" viewBox="0 0 40 40" fill="none" xmlns="http://www.w3.org/2000/svg">
<rect width="40" height="39.7091" rx="19.8545" fill="url(#paint0_radial_670_21313)"/>
<path d="M20 11.7214C22.6506 11.7214 23.0121 11.7214 24.0964 11.7214C25.0602 11.7214 25.5422 11.9606 25.9036 12.0802C26.3855 12.3194 26.747 12.439 27.1084 12.7978C27.4699 13.1566 27.7108 13.5154 27.8313 13.9939C27.9518 14.3527 28.0723 14.8311 28.1928 15.788C28.1928 16.8644 28.1928 17.1036 28.1928 19.8546C28.1928 22.6055 28.1928 22.8447 28.1928 23.9211C28.1928 24.878 27.9518 25.3564 27.8313 25.7152C27.5904 26.1937 27.4699 26.5525 27.1084 26.9113C26.747 27.2701 26.3855 27.5093 25.9036 27.6289C25.5422 27.7485 25.0602 27.8681 24.0964 27.9877C23.0121 27.9877 22.7711 27.9877 20 27.9877C17.2289 27.9877 16.988 27.9877 15.9036 27.9877C14.9398 27.9877 14.4578 27.7485 14.0964 27.6289C13.6145 27.3897 13.253 27.2701 12.8916 26.9113C12.5301 26.5525 12.2892 26.1937 12.1687 25.7152C12.0482 25.3564 11.9277 24.878 11.8072 23.9211C11.8072 22.8447 11.8072 22.6055 11.8072 19.8546C11.8072 17.1036 11.8072 16.8644 11.8072 15.788C11.8072 14.8311 12.0482 14.3527 12.1687 13.9939C12.4096 13.5154 12.5301 13.1566 12.8916 12.7978C13.253 12.439 13.6145 12.1998 14.0964 12.0802C14.4578 11.9606 14.9398 11.841 15.9036 11.7214C16.988 11.7214 17.3494 11.7214 20 11.7214ZM20 9.92728C17.2289 9.92728 16.988 9.92728 15.9036 9.92728C14.8193 9.92728 14.0964 10.1665 13.494 10.4057C12.8916 10.6449 12.2892 11.0037 11.6867 11.6018C11.0843 12.1998 10.8434 12.6782 10.4819 13.3958C10.241 13.9939 10.1205 14.7115 10 15.788C10 16.8644 10 17.2232 10 19.8546C10 22.6055 10 22.8447 10 23.9211C10 24.9976 10.241 25.7152 10.4819 26.3133C10.7229 26.9113 11.0843 27.5093 11.6867 28.1073C12.2892 28.7054 12.7711 28.9446 13.494 29.3034C14.0964 29.5426 14.8193 29.6622 15.9036 29.7818C16.988 29.7818 17.3494 29.7818 20 29.7818C22.6506 29.7818 23.0121 29.7818 24.0964 29.7818C25.1807 29.7818 25.9036 29.5426 26.506 29.3034C27.1084 29.0642 27.7108 28.7054 28.3133 28.1073C28.9157 27.5093 29.1566 27.0309 29.5181 26.3133C29.759 25.7152 29.8795 24.9976 30 23.9211C30 22.8447 30 22.4859 30 19.8546C30 17.2232 30 16.8644 30 15.788C30 14.7115 29.759 13.9939 29.5181 13.3958C29.2771 12.7978 28.9157 12.1998 28.3133 11.6018C27.7108 11.0037 27.2289 10.7645 26.506 10.4057C25.9036 10.1665 25.1807 10.0469 24.0964 9.92728C23.0121 9.92728 22.7711 9.92728 20 9.92728Z" fill="white"/>
<path d="M20 14.7115C17.1084 14.7115 14.8193 16.984 14.8193 19.8546C14.8193 22.7251 17.1084 24.9976 20 24.9976C22.8916 24.9976 25.1807 22.7251 25.1807 19.8546C25.1807 16.984 22.8916 14.7115 20 14.7115ZM20 23.2035C18.1928 23.2035 16.6265 21.7682 16.6265 19.8546C16.6265 18.0605 18.0723 16.5056 20 16.5056C21.8072 16.5056 23.3735 17.9409 23.3735 19.8546C23.3735 21.6486 21.8072 23.2035 20 23.2035Z" fill="white"/>
<path d="M25.3012 15.788C25.9666 15.788 26.506 15.2525 26.506 14.5919C26.506 13.9313 25.9666 13.3958 25.3012 13.3958C24.6358 13.3958 24.0964 13.9313 24.0964 14.5919C24.0964 15.2525 24.6358 15.788 25.3012 15.788Z" fill="white"/>
<defs>
<radialGradient id="paint0_radial_670_21313" cx="0" cy="0" r="1" gradientUnits="userSpaceOnUse" gradientTransform="translate(40.8047 0.806592) scale(92.3719 91.7001)">
<stop stop-color="#F9ED32"/>
<stop offset="0.36" stop-color="#EE2A7B"/>
<stop offset="0.44" stop-color="#D22A8A"/>
<stop offset="0.6" stop-color="#8B2AB2"/>
<stop offset="0.83" stop-color="#1B2AF0"/>
<stop offset="0.88" stop-color="#002AFF"/>
</radialGradient>
</defs>
</svg>
