<svg width="1070" height="315" viewBox="0 0 1070 315" fill="none" xmlns="http://www.w3.org/2000/svg">
<path d="M388.825 122.894H349.533V146.443H387.683V160.345H349.533V193.099H388.825V207H334.743V108.992H388.825V122.894ZM408.249 207V102.327L479.724 177.103V108.992H494.514V212.967L423.039 138.382V207H408.249ZM569.479 155.965H609.978V159.202C609.978 166.565 609.11 173.082 607.375 178.753C605.682 184 602.826 188.909 598.806 193.479C589.707 203.72 578.133 208.841 564.084 208.841C550.373 208.841 538.63 203.89 528.854 193.987C519.079 184.043 514.191 172.109 514.191 158.187C514.191 143.968 519.164 131.907 529.108 122.005C539.053 112.06 551.156 107.088 565.417 107.088C573.076 107.088 580.228 108.654 586.872 111.785C593.22 114.917 599.462 119.995 605.598 127.02L595.061 137.112C587.02 126.406 577.224 121.053 565.671 121.053C555.303 121.053 546.607 124.629 539.582 131.78C532.557 138.805 529.045 147.607 529.045 158.187C529.045 169.104 532.959 178.097 540.788 185.164C548.109 191.723 556.044 195.003 564.592 195.003C571.87 195.003 578.409 192.549 584.206 187.64C590.004 182.688 593.241 176.764 593.918 169.866H569.479V155.965ZM643.43 108.992V193.099H672.248V207H628.64V108.992H643.43ZM701.066 108.992V207H686.276V108.992H701.066ZM780.031 123.592L768.034 130.701C765.791 126.808 763.654 124.269 761.623 123.084C759.507 121.73 756.778 121.053 753.435 121.053C749.33 121.053 745.923 122.216 743.215 124.544C740.507 126.829 739.152 129.707 739.152 133.177C739.152 137.959 742.707 141.81 749.816 144.729L759.592 148.729C767.548 151.945 773.366 155.88 777.048 160.535C780.729 165.148 782.57 170.818 782.57 177.547C782.57 186.561 779.566 194.008 773.557 199.891C767.505 205.815 759.994 208.777 751.022 208.777C742.517 208.777 735.492 206.259 729.948 201.224C724.489 196.188 721.083 189.1 719.729 179.959L734.709 176.658C735.386 182.413 736.571 186.391 738.264 188.592C741.311 192.824 745.754 194.939 751.594 194.939C756.206 194.939 760.036 193.395 763.083 190.306C766.13 187.216 767.653 183.302 767.653 178.562C767.653 176.658 767.378 174.923 766.828 173.357C766.32 171.749 765.495 170.289 764.353 168.978C763.252 167.623 761.813 166.375 760.036 165.232C758.259 164.048 756.143 162.926 753.688 161.868L744.23 157.933C730.816 152.262 724.108 143.968 724.108 133.05C724.108 125.687 726.923 119.529 732.551 114.578C738.179 109.585 745.183 107.088 753.562 107.088C764.86 107.088 773.684 112.589 780.031 123.592ZM815.197 147.332H857.473V108.992H872.263V207H857.473V161.233H815.197V207H800.407V108.992H815.197V147.332ZM910.539 167.2V207H895.749V108.992H912.507C920.716 108.992 926.916 109.563 931.105 110.706C935.337 111.849 939.061 114.007 942.277 117.181C947.906 122.682 950.72 129.622 950.72 138.001C950.72 146.972 947.715 154.082 941.706 159.329C935.697 164.576 927.593 167.2 917.395 167.2H910.539ZM910.539 153.489H916.062C929.646 153.489 936.438 148.263 936.438 137.811C936.438 127.697 929.434 122.64 915.427 122.64H910.539V153.489ZM980.744 147.332H1023.02V108.992H1037.81V207H1023.02V161.233H980.744V207H965.954V108.992H980.744V147.332Z" fill="#4361EE"/>
<path d="M157.984 281.462C191.493 280.827 223.506 267.469 247.529 244.099C271.551 220.729 285.785 189.096 287.343 155.617C288.901 122.139 277.665 89.3208 255.916 63.821C234.168 38.3212 203.533 22.0489 170.228 18.305C136.923 14.561 103.441 23.6257 76.573 43.6603C49.7053 63.6949 31.4643 93.1992 25.5501 126.188C19.6358 159.177 26.4913 193.181 44.7257 221.301C62.9602 249.422 93.0804 271.542 131.139 279.428L131.139 255.77C104.253 249.11 79.0171 232.077 63.9472 208.837C48.8773 185.597 43.2116 157.495 48.0994 130.231C52.9872 102.967 68.0626 78.583 90.2674 62.0254C112.472 45.4678 140.144 37.9762 167.669 41.0704C195.194 44.1647 220.512 57.6129 238.486 78.6873C256.461 99.7617 265.746 126.884 264.459 154.553C263.171 182.221 251.408 208.364 231.554 227.679C211.7 246.993 185.243 258.032 157.55 258.557L157.984 281.462Z" fill="#4361EE"/>
<path d="M144.845 281.057C178.251 283.757 211.434 273.65 237.662 252.785C263.89 231.92 281.199 201.859 286.079 168.701C290.958 135.543 283.043 101.771 263.938 74.2345C244.833 46.6981 215.969 27.4598 183.201 20.422C150.434 13.3842 116.216 19.0739 87.4886 36.3371C58.7616 53.6002 37.6767 81.1441 28.5109 113.381C19.345 145.619 22.7847 180.135 38.132 209.93C53.4793 239.724 81.2502 264.731 118.335 276.363L120.688 252.822C94.5982 243.521 71.1816 224.063 58.4978 199.439C45.8139 174.816 42.9712 146.289 50.5464 119.647C58.1215 93.004 75.5472 70.2403 99.2887 55.9731C123.03 41.706 151.31 37.0037 178.391 42.8201C205.472 48.6365 229.326 64.536 245.116 87.2936C260.905 110.051 267.447 137.962 263.414 165.366C259.381 192.769 245.076 217.613 223.4 234.857C201.724 252.101 174.3 260.454 146.691 258.222L144.845 281.057Z" fill="#4361EE"/>
<path d="M168.21 120.279C169.809 116.851 173.486 113.661 179.881 111.109V97.7131L186.836 108.717C189.154 107.999 191.872 107.441 194.27 106.963V93.2477L202.104 105.847C203.463 105.687 204.662 105.607 206.261 105.528V93.2477L213.775 105.368C220.65 105.528 227.605 106.484 234 108.478C230.962 98.8295 214.575 90.0582 211.777 89.5C183.239 80.8084 156.779 105.448 156.299 112.066C146.707 85.2738 102.82 86.8686 82.276 110.551C98.3437 106.405 143.349 108.318 146.547 122.911C136.475 120.678 98.0239 97.7131 77 161.584C118.808 136.945 137.833 127.854 142.47 131.124C111.214 142.128 122.006 172.668 122.006 172.668C122.006 172.668 132.957 147.072 146.067 144.759L148.305 144.919C135.835 193.4 130.051 231.562 145 281L148.5 281.165H153H157L161.25 280.915L165.5 280.665L169.5 280.165C150.235 234.713 153.661 195.154 163.814 145.636L165.892 145.796C173.007 149.703 187.076 172.588 189.714 180.004C194.75 161.983 189.314 145.955 174.446 134.473C176.684 133.197 181.56 133.277 187.635 134.234L189.634 123.07L195.469 135.669H195.31C197.628 136.147 199.946 136.706 202.344 137.343L205.941 122.99L209.779 139.417C211.617 139.975 213.376 140.453 215.054 141.011L218.412 127.695L222.089 143.404C227.605 145.317 231.922 147.151 233.92 148.268C232.881 135.111 215.374 102.816 168.21 120.279Z" fill="#4361EE"/>
</svg>
