<svg width="285" height="285" viewBox="0 0 285 285" fill="none" xmlns="http://www.w3.org/2000/svg">
<path d="M144.713 274.191C178.222 273.556 210.235 260.198 234.258 236.828C258.281 213.458 272.514 181.825 274.072 148.346C275.63 114.868 264.395 82.0497 242.646 56.5499C220.897 31.0501 190.263 14.7778 156.957 11.0338C123.652 7.28987 90.1698 16.3546 63.3022 36.3892C36.4346 56.4238 18.1935 85.9281 12.2793 118.917C6.36507 151.906 13.2205 185.91 31.455 214.03C49.6895 242.151 79.8097 264.271 117.868 272.157L117.868 248.499C90.982 241.839 65.7464 224.806 50.6765 201.566C35.6065 178.326 29.9408 150.224 34.8287 122.96C39.7165 95.6958 54.7918 71.3119 76.9967 54.7543C99.2015 38.1966 126.873 30.7051 154.398 33.7993C181.923 36.8935 207.241 50.3418 225.216 71.4162C243.19 92.4905 252.475 119.613 251.188 147.282C249.901 174.95 238.137 201.093 218.283 220.408C198.43 239.722 171.973 250.761 144.279 251.286L144.713 274.191Z" fill="#4361EE"/>
<path d="M131.575 273.785C164.981 276.486 198.163 266.379 224.391 245.513C250.619 224.648 267.928 194.588 272.808 161.43C277.688 128.272 269.772 94.4998 250.667 66.9634C231.562 39.427 202.698 20.1887 169.93 13.1509C137.163 6.11307 102.945 11.8028 74.2179 29.066C45.4909 46.3291 24.406 73.8729 15.2401 106.11C6.07427 138.348 9.51391 172.864 24.8612 202.659C40.2086 232.453 67.9795 257.46 105.065 269.092L107.418 245.551C81.3274 236.25 57.9109 216.792 45.227 192.168C32.5432 167.545 29.7005 139.018 37.2756 112.375C44.8507 85.7329 62.2764 62.9692 86.0179 48.702C109.759 34.4348 138.039 29.7325 165.12 35.5489C192.201 41.3653 216.056 57.2649 231.845 80.0224C247.634 102.78 254.176 130.691 250.143 158.095C246.111 185.498 231.805 210.342 210.129 227.586C188.453 244.83 161.029 253.183 133.421 250.951L131.575 273.785Z" fill="#4361EE"/>
<path d="M154.939 113.008C156.538 109.579 160.215 106.39 166.61 103.838V90.442L173.565 101.446C175.883 100.728 178.601 100.17 180.999 99.6917V85.9766L188.833 98.5754C190.192 98.4159 191.391 98.3362 192.99 98.2564V85.9766L200.504 98.097C207.379 98.2564 214.334 99.2133 220.729 101.207C217.691 91.5584 201.304 82.7871 198.506 82.2289C169.968 73.5373 143.508 98.1767 143.028 104.795C133.436 78.0027 89.5493 79.5975 69.005 103.28C85.0727 99.1336 130.078 101.047 133.276 115.64C123.204 113.407 84.7529 90.442 63.729 154.313C105.537 129.674 124.563 120.583 129.199 123.853C97.9429 134.857 108.735 165.397 108.735 165.397C108.735 165.397 119.686 139.8 132.796 137.488L135.035 137.648C122.564 186.129 116.78 224.291 131.729 273.729L135.229 273.894H139.729H143.729L147.979 273.644L152.229 273.394L156.229 272.894C136.964 227.442 140.39 187.883 150.543 138.365L152.621 138.525C159.736 142.432 173.805 165.317 176.443 172.733C181.479 154.712 176.043 138.684 161.175 127.202C163.413 125.926 168.289 126.006 174.364 126.963L176.363 115.799L182.198 128.398H182.039C184.357 128.876 186.675 129.434 189.073 130.072L192.67 115.719L196.508 132.146C198.346 132.704 200.105 133.182 201.783 133.74L205.141 120.424L208.818 136.132C214.334 138.046 218.651 139.88 220.649 140.997C219.61 127.84 202.103 95.5453 154.939 113.008Z" fill="#4361EE"/>
</svg>
