<svg width="40" height="40" viewBox="0 0 40 40" fill="none" xmlns="http://www.w3.org/2000/svg">
<rect width="40" height="39.7091" rx="19.8545" fill="#48C95F"/>
<path d="M27.9268 11.9748C25.9512 10.0203 23.3171 8.93454 20.5366 8.93454C14.7561 8.93454 10.0732 13.5673 10.0732 19.2858C10.0732 21.0954 10.5854 22.9051 11.4634 24.4252L10 29.7818L15.561 28.3341C17.0976 29.1303 18.7805 29.5647 20.5366 29.5647C26.3171 29.5647 31 24.9319 31 19.2134C30.9268 16.5351 29.9024 13.9292 27.9268 11.9748ZM25.5854 22.9775C25.3659 23.5566 24.3415 24.1357 23.8293 24.2081C23.3902 24.2804 22.8049 24.2804 22.2195 24.1357C21.8537 23.9909 21.3415 23.8461 20.7561 23.5566C18.122 22.4708 16.439 19.8649 16.2927 19.6477C16.1463 19.5029 15.1951 18.2724 15.1951 16.9694C15.1951 15.6665 15.8537 15.0874 16.0732 14.7978C16.2927 14.5083 16.5854 14.5083 16.8049 14.5083C16.9512 14.5083 17.1707 14.5083 17.3171 14.5083C17.4634 14.5083 17.6829 14.4359 17.9024 14.9426C18.122 15.4493 18.6341 16.7523 18.7073 16.8247C18.7805 16.9694 18.7805 17.1142 18.7073 17.259C18.6341 17.4037 18.561 17.5485 18.4146 17.6933C18.2683 17.8381 18.1219 18.0552 18.0488 18.1276C17.9024 18.2724 17.7561 18.4172 17.9024 18.6343C18.0488 18.9239 18.561 19.7201 19.3659 20.444C20.3902 21.3126 21.1951 21.6022 21.4878 21.7469C21.7805 21.8917 21.9268 21.8193 22.0732 21.6745C22.2195 21.5298 22.7317 20.9507 22.878 20.6611C23.0244 20.3716 23.2439 20.444 23.4634 20.5164C23.6829 20.5887 25 21.2402 25.2195 21.385C25.5122 21.5298 25.6585 21.6022 25.7317 21.6745C25.8049 21.8917 25.8049 22.3984 25.5854 22.9775Z" fill="white"/>
</svg>
