<svg width="40" height="40" viewBox="0 0 40 40" fill="none" xmlns="http://www.w3.org/2000/svg">
<rect width="40" height="39.7091" rx="19.8545" fill="#0077FF"/>
<path d="M20.9825 26.8036C13.466 26.8036 9.17864 21.5866 9 12.9055H12.7651C12.8888 19.2772 15.6646 21.9761 17.8632 22.5326V12.9055H21.4085V18.4007C23.5796 18.1642 25.8607 15.6601 26.6302 12.9055H30.1755C29.8855 14.3341 29.3075 15.6867 28.4776 16.8788C27.6477 18.071 26.5837 19.0769 25.3523 19.8337C26.7269 20.5252 27.941 21.504 28.9145 22.7054C29.888 23.9069 30.5988 25.3037 31 26.8036H27.0974C26.7373 25.5008 26.0054 24.3345 24.9934 23.451C23.9814 22.5675 22.7343 22.0061 21.4085 21.837V26.8036H20.9825Z" fill="white"/>
</svg>
