<svg width="40" height="40" viewBox="0 0 40 40" fill="none" xmlns="http://www.w3.org/2000/svg">
<rect width="40" height="39.7091" rx="19.8545" fill="#F40000"/>
<path fill-rule="evenodd" clip-rule="evenodd" d="M11.2625 26.86C10.8702 26.7448 10.5123 26.5399 10.219 26.2625C9.9256 25.985 9.7054 25.6433 9.57695 25.2661C8.84292 23.3165 8.62543 15.1757 10.0391 13.5687C10.5096 13.0459 11.1739 12.724 11.8878 12.6729C15.6802 12.2777 27.3975 12.3304 28.7432 12.8046C29.1217 12.9236 29.4675 13.1241 29.7547 13.391C30.0419 13.6579 30.263 13.9844 30.4015 14.3459C31.2035 16.3613 31.2307 23.6854 30.2928 25.6218C30.044 26.1258 29.6275 26.5341 29.1102 26.781C27.6965 27.466 13.1383 27.4528 11.2625 26.86ZM17.2842 23.0399L24.0808 19.615L17.2842 16.1637V23.0399Z" fill="white"/>
</svg>
